<svg width="18" height="20" viewBox="0 0 18 20" fill="none" xmlns="http://www.w3.org/2000/svg">
<path d="M17.9469 6.305C17.9369 5.54762 17.7951 4.79777 17.5279 4.089C17.2963 3.49115 16.9425 2.9482 16.4891 2.49483C16.0358 2.04146 15.4928 1.68765 14.8949 1.456C14.1953 1.19336 13.4561 1.05134 12.7089 1.036C11.7469 0.992999 11.4419 0.980999 8.99995 0.980999C6.55795 0.980999 6.24495 0.980999 5.28995 1.036C4.54311 1.05145 3.8043 1.19347 3.10495 1.456C2.50701 1.68749 1.96397 2.04124 1.51058 2.49463C1.05719 2.94802 0.703437 3.49106 0.471948 4.089C0.208779 4.78813 0.0670714 5.52711 0.0529482 6.274C0.00994824 7.237 -0.00305176 7.542 -0.00305176 9.984C-0.00305176 12.426 -0.00305177 12.738 0.0529482 13.694C0.0679482 14.442 0.208948 15.18 0.471948 15.881C0.703826 16.4788 1.05784 17.0216 1.51138 17.4748C1.96492 17.928 2.50801 18.2816 3.10595 18.513C3.80338 18.7862 4.54232 18.9384 5.29095 18.963C6.25395 19.006 6.55895 19.019 9.00095 19.019C11.4429 19.019 11.7559 19.019 12.7109 18.963C13.4581 18.9483 14.1973 18.8066 14.8969 18.544C15.4946 18.3121 16.0375 17.9582 16.4908 17.5048C16.9441 17.0515 17.298 16.5087 17.5299 15.911C17.7929 15.211 17.9339 14.473 17.9489 13.724C17.9919 12.762 18.0049 12.457 18.0049 10.014C18.0029 7.572 18.0029 7.262 17.9469 6.305ZM8.99395 14.602C6.43995 14.602 4.37095 12.533 4.37095 9.979C4.37095 7.425 6.43995 5.356 8.99395 5.356C10.22 5.356 11.3959 5.84306 12.2629 6.71004C13.1299 7.57703 13.6169 8.7529 13.6169 9.979C13.6169 11.2051 13.1299 12.381 12.2629 13.248C11.3959 14.1149 10.22 14.602 8.99395 14.602ZM13.8009 6.263C13.6593 6.26313 13.5191 6.23534 13.3883 6.18121C13.2574 6.12708 13.1385 6.04768 13.0384 5.94755C12.9383 5.84743 12.8589 5.72854 12.8047 5.59769C12.7506 5.46684 12.7228 5.3266 12.7229 5.185C12.7229 5.0435 12.7508 4.90339 12.805 4.77266C12.8591 4.64193 12.9385 4.52315 13.0385 4.42309C13.1386 4.32304 13.2574 4.24367 13.3881 4.18952C13.5188 4.13537 13.6589 4.1075 13.8004 4.1075C13.9419 4.1075 14.0821 4.13537 14.2128 4.18952C14.3435 4.24367 14.4623 4.32304 14.5624 4.42309C14.6624 4.52315 14.7418 4.64193 14.7959 4.77266C14.8501 4.90339 14.8779 5.0435 14.8779 5.185C14.8779 5.781 14.3959 6.263 13.8009 6.263Z" fill="#AE7B3C"/>
</svg>
